<?xml version="1.0" encoding="UTF-8"?>
<svg width="568px" height="545px" viewBox="0 0 568 545" version="1.1" xmlns="http://www.w3.org/2000/svg" xmlns:xlink="http://www.w3.org/1999/xlink">
    <!-- Generator: Sketch 52.5 (67469) - http://www.bohemiancoding.com/sketch -->
    <title>Artboard</title>
    <desc>Created with Sketch.</desc>
    <defs>
        <path d="M0.485316291,224 L78.1620463,362.009883 L284.670991,363 C300.189133,289.794044 310.844213,234.59311 316.636231,197.397199 C322.428248,160.201289 322.428248,137.248496 316.636231,128.538823 L296.783967,97.8182318 C304.114583,98.361707 297.816528,96.419644 277.889802,91.9920426 C257.963076,87.5644412 238.469127,76.2712503 219.407957,58.1124699 C230.265762,57.2344637 228.437336,50.0436159 213.92268,36.5399264 C199.408023,23.036237 180.741449,11.1595921 157.922958,0.909991686 L101.387318,39.5729098 C95.3952339,43.4725632 88.1605996,50.2560677 79.6834154,59.9234234 C66.9676391,74.424457 51.3282582,83.4111093 45.4964583,83.4111093 C41.6085918,83.4111093 35.4211872,86.7611124 26.9342446,93.4611186 L26.9342446,81.0409075 L0.485316291,120 L0.485316291,224 Z" id="path-1"></path>
    </defs>
    <g id="Artboard" stroke="none" stroke-width="1" fill="none" fill-rule="evenodd">
        <g id="Ears" transform="translate(6.000000, 9.000000)">
            <g id="Left" transform="translate(0.000000, 46.000000)">
                <path d="M213.396611,218.325654 C202.392056,109.259765 179.593186,36.4952571 145,0.0321297615 C97.7858444,34 28.0528378,54.7268207 19.6024536,54.7268207 C24.0132279,109.811913 73.4408759,173.451432 167.885398,245.645379" id="Path-Copy" stroke="#000000" stroke-width="10" fill="#FFAB6B"></path>
                <path d="M184.162046,175.568306 C173.297738,86.5013488 155.206369,34.9785802 129.887937,21 C129.887937,21 51,68.4503301 51,68.4503301 C60.6011818,119.662827 128.623996,191.451395 145,204.624551 C156.009677,192.839307 169.063693,183.153892 184.162046,175.568306 Z" id="Path" fill="#FFD8D8"></path>
                <path d="M13.6024536,190.056802 C-11.0552327,155 8.0200485,50.2143353 8.0200485,50.2143353 C32.6733495,30.7381118 76.3333333,14.0107099 139,0.0321297615 C106.077523,126.715244 64.2783412,190.056802 13.6024536,190.056802 Z" id="Path-5" stroke="#000000" stroke-width="10" fill="#FFAB6B"></path>
            </g>
            <g id="Right" transform="translate(313.000000, 0.000000)">
                <path d="M0.653607718,242.987295 C21.5303007,103.293621 49.92366,22.3058917 85.8336857,0.0241062988 C85.8336857,0.0241062988 236.58919,97.1124471 236.58919,97.1124471 C230.867731,159.353206 170.806756,224.197516 56.4062651,291.645379 L0.653607718,242.987295 Z" id="Path-2-Copy" stroke="#000000" stroke-width="10" fill="#FFAB6B"></path>
                <path d="M23,218.588317 C23,218.588317 53.9125612,51.5329921 92.8056399,27.7577771 C131.698719,3.982562 207.927213,54.0571151 198.414721,125.890231 C192.073059,173.778975 150.392667,216.162534 73.373546,253.040908 C57.9835248,235.982509 41.1923428,224.498313 23,218.588317 Z" id="Path-2" fill="#FFD8D8"></path>
                <path d="M90.2990834,0.0241062988 C78.7663611,134.008035 111.284166,212.685601 187.852498,236.056802 C224.137583,213.599968 241.58919,97.7074761 241.58919,97.7074761 C184.575535,39.5217244 134.145499,6.96060116 90.2990834,0.0241062988 Z" id="Path-6" stroke="#000000" stroke-width="10" fill="#FFAB6B"></path>
            </g>
        </g>
        <g id="Tail" transform="translate(342.000000, 466.000000)">
            <circle id="Fill" fill="#FFFFFF" cx="22.5" cy="22.5" r="22.5"></circle>
            <path d="M19.6345627,33.2858486 C32.4746297,35.9367057 40.4424954,19.3947983 35.9182672,8 C38.4415404,7.00531422 41.4687847,13.1309531 45,26.3769165 L32.4746297,45 C21.7946593,45.2333081 17.514637,41.3285909 19.6345627,33.2858486 Z" id="Shadow" fill="#D8D8D8"></path>
            <circle id="Stroke" stroke="#000000" stroke-width="10" cx="22.5" cy="22.5" r="22.5"></circle>
        </g>
        <g id="Body-&amp;-Head" transform="translate(112.000000, 181.000000)">
            <path d="M230.919405,273.971875 L245.322424,297.945092 C255.846159,315.461406 250.177554,338.192357 232.66124,348.716092 C226.906588,352.173465 220.319709,354 213.606332,354 L106.875674,354 C86.441138,354 69.8756737,337.434536 69.8756737,317 C69.8756737,310.54087 71.5665595,304.194266 74.7801827,298.591321 L88.5327609,274.613731 C40.066129,253.471183 7,211.199277 7,162.5 C7,134.37491 18.0287466,108.393581 36.6833864,87.3879916 C51.7247331,70.4510605 71.7238961,56.7490038 94.8970891,47.7663539 C114.37531,40.2159903 136.096058,36 159,36 C180.880081,36 201.680388,39.8474856 220.477394,46.7738644 C248.017598,56.9219642 271.257459,73.679305 287.292389,94.628582 C302.303184,114.23985 311,137.524684 311,162.5 C311,210.711339 278.593158,252.623458 230.919405,273.971875 Z" id="Body-Copy" fill="#FFAB6B"></path>
            <path d="M22.4064158,212.367839 C57.0349075,250.081795 91.6633993,269.785696 126.291891,271.479543 C113.24469,271.479543 74.8813419,311.159056 74.8813419,311.159056 C74.8813419,311.159056 64.6786814,316.365159 92.1562425,275.878274 C62.471015,263.712288 39.2210728,242.542144 22.4064158,212.367839 Z" id="Path-4" fill="#B87B4D"></path>
            <g id="Group">
                <mask id="mask-2" fill="white">
                    <use xlink:href="#path-1"></use>
                </mask>
                <g id="Path-3"></g>
                <path d="M246.350055,307.613173 L226.872213,274.942722 L231.977178,272.636906 C280.97252,250.506632 312,207.940614 312,161 C312,136.676643 303.741569,113.355514 288.380505,93.2093122 C272.22779,72.024851 248.80313,55.1535083 221.16949,44.9317511 C201.775044,37.7576934 180.710788,34 159,34 C136.288469,34 114.289257,38.1125432 94.1798957,45.9375871 C70.9391855,54.9811151 50.7759223,68.780914 35.5999773,85.9352396 C16.4582102,107.572384 6,133.641478 6,161 C6,208.650207 37.9787947,251.76111 88.1425816,273.576485 L93.2477895,275.796653 L74.8214536,308.171062 C72.075963,312.994791 70.6323281,318.449678 70.6323281,324 C70.6323281,341.673112 84.9592161,356 102.632328,356 L218.864206,356 C224.633541,356 230.295562,354.440258 235.251033,351.485849 C250.431048,342.435654 255.40025,322.793188 246.350055,307.613173 Z" id="Body" stroke="#000000" stroke-width="10" mask="url(#mask-2)"></path>
            </g>
        </g>
        <path d="M247,538 C255.865633,524 257.362568,510 251.490804,496" id="Left-foot-relief" stroke="#000000" stroke-width="10"></path>
        <path d="M302,539 C296.666667,525 296.666667,511 302,497" id="Right-foot-relief" stroke="#000000" stroke-width="10"></path>
        <path d="M242,390.040786 C242,409.986405 272.423981,409.986405 272.423981,390.040786 L272.576019,390 C272.576019,409.945619 303,409.945619 303,390" id="Path-7" stroke="#000000" stroke-width="5"></path>
        <g id="eye" transform="translate(329.000000, 324.000000)">
            <circle id="Oval" fill="#000000" cx="22.5" cy="22.5" r="22.5"></circle>
            <circle id="Oval-Copy-2" fill="#FFFFFF" cx="32.5" cy="11.5" r="7.5"></circle>
        </g>
        <g id="eye" transform="translate(172.000000, 324.000000)">
            <circle id="Oval" fill="#000000" cx="22.5" cy="22.5" r="22.5"></circle>
            <circle id="Oval-Copy-2" fill="#FFFFFF" cx="32.5" cy="11.5" r="7.5"></circle>
        </g>
    </g>
</svg>